<?xml version="1.0" encoding="UTF-8"?>
<svg width="242px" height="265px" viewBox="0 0 242 265" version="1.1" xmlns="http://www.w3.org/2000/svg" xmlns:xlink="http://www.w3.org/1999/xlink">
    <!-- Generator: Sketch 58 (84663) - https://sketch.com -->
    <title>icon1 copy 2</title>
    <desc>Created with Sketch.</desc>
    <g id="Page-1" stroke="none" stroke-width="1" fill="none" fill-rule="evenodd">
        <g id="icon1-copy-2" transform="translate(-4.000000, 9.000000)">
            <path d="M136.891514,6.78318171 L221.144689,54.8430521 C228.631388,59.1136302 233.253175,67.0708429 233.253175,75.6899201 L233.253175,171.31008 C233.253175,179.929157 228.631388,187.88637 221.144689,192.156948 L136.891514,240.216818 C129.521224,244.420994 120.478776,244.420994 113.108486,240.216818 L28.855311,192.156948 C21.3686125,187.88637 16.7468245,179.929157 16.7468245,171.31008 L16.7468245,75.6899201 C16.7468245,67.0708429 21.3686125,59.1136302 28.855311,54.8430521 L113.108486,6.78318171 C120.478776,2.57900573 129.521224,2.57900573 136.891514,6.78318171 Z" id="ффффф" stroke="#FFFFFF" stroke-width="24" fill="#F9F4F0" stroke-linejoin="round"></path>
            <g id="delivery-bike" transform="translate(65.000000, 71.000000)" fill-rule="nonzero">
                <path d="M99.8744531,64.970362 C99.9630469,63.4936555 99.9778125,61.9574368 99.9145312,60.3600527 C99.5742187,51.8294927 96.0642187,43.7301603 92.3482031,35.1549662 C91.7092969,33.6803851 91.0582031,32.173214 90.4122656,30.6433716 L90.8425781,30.6433716 C93.5013281,30.6433716 95.664375,28.4638539 95.664375,25.7848585 L95.664375,14.6723648 C95.664375,11.9933694 93.5013281,9.81385167 90.8425781,9.81385167 L74.2804687,9.81385167 C69.3874219,9.81385167 65.2804687,13.2587129 64.2157031,17.8671329 L56.1832031,17.8671329 C54.8889844,17.8671329 53.8394531,18.9244198 53.8394531,20.2287297 C53.8394531,21.5330396 54.8889844,22.5903265 56.1832031,22.5903265 L64.2157031,22.5903265 C65.0767969,26.3169263 67.9270312,29.2809664 71.5746094,30.2789772 L76.6242187,52.9663654 C78.2203125,60.123893 75.4455469,64.3539852 72.8367187,66.6423725 C68.7916406,70.1899632 62.4016406,71.3185703 57.2960156,69.386548 C52.8677344,67.7107589 50.053125,64.0186384 49.370625,58.9903265 L49.1765625,57.5617966 L51.1607812,57.5617966 C52.455,57.5617966 53.5045312,56.5045097 53.5045312,55.2001998 L53.5045312,48.6732186 C53.5045312,45.0363595 51.10875,41.953531 47.8242187,40.9406422 L47.8242187,2.3615968 C47.8242187,1.05728689 46.7746875,0 45.4804687,0 L5.2003125,0 C3.90609375,0 2.8565625,1.05728689 2.8565625,2.3615968 L2.8565625,12.0483946 C2.8565625,13.3527045 3.90609375,14.4099914 5.2003125,14.4099914 C6.49453125,14.4099914 7.5440625,13.3527045 7.5440625,12.0483946 L7.5440625,4.72319361 L15.8048437,4.72319361 L15.8048437,18.9367001 C15.8048437,19.7925428 16.2644531,20.5815523 17.0060156,20.9986103 C17.7478125,21.4159044 18.6553125,21.396067 19.3785937,20.9468913 L25.3371094,17.2457968 L31.2953906,20.9468913 C31.6717969,21.1809256 32.0983594,21.2982969 32.5253906,21.2982969 C32.9186719,21.2982969 33.3121875,21.1986375 33.6679687,20.9986103 C34.4095312,20.5813161 34.8691406,19.7925428 34.8691406,18.9367001 L34.8691406,4.72319361 L43.1364844,4.72319361 L43.1364844,40.5878196 L7.5440625,40.5878196 L7.5440625,33.2560062 C7.5440625,31.9516963 6.49453125,30.8944094 5.2003125,30.8944094 C3.90609375,30.8944094 2.8565625,31.9516963 2.8565625,33.2560062 L2.8565625,42.9494164 L2.8565625,54.4383487 C0.98625,57.1721332 0,60.3454108 0,63.6681775 L0,82.2650438 C0,86.0920114 3.08695312,89.2055407 6.88125,89.2055407 L12.4891406,89.2055407 C13.635,97.5514238 20.7571875,104 29.3500781,104 C37.94625,104 45.0710156,97.5514238 46.2175781,89.2055407 L81.3698438,89.2055407 C82.5157031,97.5514238 89.6378906,104 98.2305469,104 C106.826719,104 113.951484,97.5514238 115.098047,89.2055407 L117.65625,89.2055407 C118.950469,89.2055407 120,88.1482538 120,86.8439439 C120,75.3058904 111.113203,65.8200645 99.8744531,64.970362 L99.8744531,64.970362 Z M30.1816406,14.7063718 L26.5671094,12.4612017 C25.8126563,11.9926609 24.8615625,11.992897 24.1071094,12.4612017 L20.4923438,14.7066079 L20.4923438,4.72319361 L30.1816406,4.72319361 L30.1816406,14.7063718 Z M85.5651563,14.5370453 L90.8428125,14.5370453 C90.9105469,14.5370453 90.9771094,14.6041146 90.9771094,14.6723648 L90.9771094,25.7850947 C90.9771094,25.8533448 90.9105469,25.9204142 90.8428125,25.9204142 L85.5658594,25.9204142 C84.07125,22.1701985 84.0710156,18.282774 85.5651563,14.5370453 L85.5651563,14.5370453 Z M73.78875,25.8975067 C73.7477344,25.8927835 73.7064844,25.8885326 73.665,25.8859349 C70.8958594,25.5822335 68.7229688,23.2539352 68.63625,20.4049049 C68.6404688,20.3465734 68.6451563,20.288242 68.6451563,20.2287297 C68.6451563,20.1692175 68.6404688,20.1108861 68.63625,20.0525546 C68.7290625,16.9954676 71.2244531,14.5370453 74.2804688,14.5370453 L80.5940625,14.5370453 C79.4524219,18.3030837 79.4526563,22.151778 80.595,25.9204142 L74.2804688,25.9204142 C74.1145313,25.9204142 73.9509375,25.9116763 73.78875,25.8975067 L73.78875,25.8975067 Z M7.5440625,45.3107771 L45.4804688,45.3107771 C47.3203125,45.3107771 48.8170313,46.8188928 48.8170313,48.6727463 L48.8170313,52.8381307 L7.5440625,52.8381307 L7.5440625,45.3107771 Z M29.3500781,99.2768064 C23.3479688,99.2768064 18.3358594,94.9352468 17.2375781,89.2055407 L41.4691406,89.2055407 C40.3701563,94.9352468 35.3552344,99.2768064 29.3500781,99.2768064 Z M12.4392187,84.4823471 C13.5850781,76.1052909 20.7295313,69.6312094 29.3500781,69.6312094 C37.9736719,69.6312094 45.1209375,76.1050547 46.2672656,84.4823471 L12.4392187,84.4823471 Z M74.3069531,84.4823471 L50.9929688,84.4823471 C49.8201563,73.4933648 40.561875,64.9080158 29.3500781,64.9080158 C18.1413281,64.9080158 8.88585937,73.4933648 7.71351562,84.4823471 L6.88148437,84.4823471 C5.671875,84.4823471 4.68773437,83.4876425 4.68773437,82.2650438 L4.68773437,63.6681775 C4.68773437,61.4900768 5.2875,59.4007721 6.42796875,57.5615605 L44.4454688,57.5615605 L44.72625,59.6303193 C45.6398438,66.3594532 49.6207031,71.5268632 55.648125,73.8079295 C57.8707031,74.6491303 60.2432813,75.0565057 62.619375,75.0565057 C67.4603906,75.0565057 72.3119531,73.3644216 75.9145313,70.2048413 C80.9620313,65.7775557 82.8384375,59.2876516 81.1982813,51.9317499 L76.4599219,30.6436078 L85.3277344,30.6436078 C86.2321875,32.8377674 87.1544531,34.9721786 88.0528125,37.0451882 C91.7409375,45.5559108 94.9260938,52.9061447 95.2310156,60.5489804 C95.5495313,68.5963577 93.735,74.7490258 89.8371094,78.8362414 C86.2642969,82.5826786 81.0391406,84.4823471 74.3069531,84.4823471 Z M98.2303125,99.2768064 C92.2282031,99.2768064 87.2160937,94.9352468 86.1178125,89.2055407 L110.349375,89.2055407 C109.250625,94.9352468 104.235703,99.2768064 98.2303125,99.2768064 Z M90.5153906,84.4823471 C91.4866406,83.7689087 92.38875,82.9770653 93.2167969,82.1087061 C96.3009375,78.8747355 98.3322656,74.7091149 99.298125,69.6685226 C107.438203,70.1774468 114.053906,76.4533903 115.152188,84.4821109 L90.5153906,84.4821109 L90.5153906,84.4823471 Z" id="Shape" fill="#EB6D2F"></path>
                <path d="M5.5,25 C6.8805,25 8,23.8753245 8,22.4965049 C8,21.1176852 6.8805,20 5.5,20 C4.1195,20 3,21.1176852 3,22.4965049 L3,22.510735 C3,23.8895546 4.1195,25 5.5,25 Z" id="Path" fill="#F6BB05"></path>
            </g>
        </g>
    </g>
</svg>