<?xml version="1.0" encoding="UTF-8"?>
<svg width="242px" height="265px" viewBox="0 0 242 265" version="1.1" xmlns="http://www.w3.org/2000/svg" xmlns:xlink="http://www.w3.org/1999/xlink">
    <!-- Generator: Sketch 58 (84663) - https://sketch.com -->
    <title>icon3</title>
    <desc>Created with Sketch.</desc>
    <g id="Page-1" stroke="none" stroke-width="1" fill="none" fill-rule="evenodd">
        <g id="icon3" transform="translate(-4.000000, 9.000000)">
            <path d="M136.891514,6.78318171 L221.144689,54.8430521 C228.631388,59.1136302 233.253175,67.0708429 233.253175,75.6899201 L233.253175,171.31008 C233.253175,179.929157 228.631388,187.88637 221.144689,192.156948 L136.891514,240.216818 C129.521224,244.420994 120.478776,244.420994 113.108486,240.216818 L28.855311,192.156948 C21.3686125,187.88637 16.7468245,179.929157 16.7468245,171.31008 L16.7468245,75.6899201 C16.7468245,67.0708429 21.3686125,59.1136302 28.855311,54.8430521 L113.108486,6.78318171 C120.478776,2.57900573 129.521224,2.57900573 136.891514,6.78318171 Z" id="ффффф" stroke="#F9F4F0" stroke-width="24" fill="#FFFFFF" stroke-linejoin="round"></path>
            <g id="008-beehive-2" transform="translate(65.000000, 64.000000)" fill-rule="nonzero">
                <path d="M115.277419,40.136129 C113.206452,38.1832258 110.870323,36.8903226 108.62129,36.2419355 C108.710323,35.7793548 108.772258,35.3109677 108.772258,34.8387097 C108.772258,32.2645161 107.43871,29.9980645 105.412258,28.5890323 L108.416129,24.3425806 L105.255484,22.1090323 L101.659355,27.1916129 C101.332258,27.1529032 101.010968,27.0967742 100.674194,27.0967742 C100.337419,27.0967742 100.018065,27.1529032 99.6909677,27.1916129 L96.0929032,22.1070968 L92.9322581,24.3445161 L95.936129,28.5890323 C93.9096774,29.9980645 92.576129,32.2645161 92.576129,34.8387097 C92.576129,35.3070968 92.636129,35.7696774 92.7232258,36.2283871 C90.4567742,36.8709677 88.0993548,38.1677419 86.0109677,40.1380645 C85.4632258,40.6529032 84.9716129,41.1987097 84.5090323,41.7541935 C81.2090323,39.7625806 77.4580645,38.7096774 73.5483871,38.7096774 L65.8064516,38.7096774 L65.8064516,22.7477419 L114.048387,14.283871 C117.497419,13.676129 120,10.6954839 120,7.19612903 C120,3.2283871 116.771613,0 112.714839,0 C112.29871,0 111.880645,0.0367741935 111.470323,0.108387097 L5.9516129,18.6193548 C2.50258065,19.2270968 0,22.2077419 0,25.7070968 C0,29.6748387 3.2283871,32.9032258 7.28516129,32.9032258 C7.70129032,32.9032258 8.11935484,32.8664516 8.52967742,32.7948387 L54.1935484,24.783871 L54.1935484,38.7096774 L46.4516129,38.7096774 C34.7129032,38.7096774 25.1612903,48.2612903 25.1612903,60 L25.2212903,60 C22.8503226,61.7651613 21.2903226,64.5658065 21.2903226,67.7419355 L21.2903226,69.5225806 L20.6070968,68.5587097 L17.4464516,70.796129 L20.4503226,75.0406452 C18.4258065,76.4496774 17.0922581,78.7180645 17.0922581,81.2903226 C17.0922581,81.7587097 17.1522581,82.2212903 17.2393548,82.68 C14.9729032,83.3225806 12.6154839,84.6193548 10.5270968,86.5896774 C7.5716129,89.3729032 5.80645161,92.8412903 5.80645161,95.8645161 C5.80645161,97.68 6.43354839,99.2322581 7.62193548,100.350968 C8.80451613,101.467742 10.4129032,102.003871 12.2148387,102.003871 C14.2625806,102.003871 16.5541935,101.297419 18.7567742,99.9812903 C20.2567742,102.812903 22.5909677,104.516129 25.1903226,104.516129 C26.7483871,104.516129 28.2,103.906452 29.4406452,102.828387 C31.3645161,112.602581 39.9929032,120 50.3225806,120 L69.6774194,120 C81.0290323,120 90.3077419,111.061935 90.9096774,99.8554839 C94.3529032,98.3729032 96.7741935,94.9490323 96.7741935,90.9677419 L96.7741935,87.0967742 C96.7741935,84.3096774 95.5722581,81.8148387 93.6812903,80.0458065 C96.6619355,78.3967742 98.7096774,75.2554839 98.7096774,71.6129032 L98.7096774,67.7419355 C98.7096774,64.5658065 97.1496774,61.7651613 94.7787097,60 L94.8387097,60 C94.8387097,57.8593548 94.5135484,55.7651613 93.8941935,53.7425806 C94.0103226,53.6767742 94.1264516,53.5993548 94.2425806,53.5296774 C95.7406452,56.3612903 98.0748387,58.0645161 100.674194,58.0645161 C103.285161,58.0645161 105.601935,56.3767742 107.098065,53.5587097 C109.287097,54.8574194 111.56129,55.5522581 113.591613,55.5522581 C115.393548,55.5522581 117.001935,55.0180645 118.184516,53.8993548 C119.372903,52.7825806 120,51.2303226 120,49.4129032 C120,46.3896774 118.234839,42.9212903 115.277419,40.136129 Z M100.674194,30.9677419 C103.004516,30.9677419 104.899355,32.703871 104.899355,34.8387097 C104.899355,35.1812903 104.847097,35.5141935 104.754194,35.8374194 C103.304516,35.9845161 101.996129,36.4645161 101.007097,37.3974194 C100.869677,37.5251613 100.767097,37.68 100.647097,37.8193548 C100.525161,37.68 100.422581,37.5251613 100.285161,37.3974194 C99.3077419,36.476129 98.0225806,35.9980645 96.596129,35.8432258 C96.5012903,35.52 96.4490323,35.1851613 96.4490323,34.8387097 C96.4490323,32.703871 98.343871,30.9677419 100.674194,30.9677419 Z M7.85806452,28.983871 C7.6683871,29.0148387 7.47677419,29.0322581 7.19612903,29.0322581 C5.36129032,29.0322581 3.87096774,27.54 3.87096774,25.7070968 C3.87096774,24.0890323 5.0283871,22.7129032 6.62129032,22.4341935 L112.141935,3.91935484 C112.331613,3.8883871 112.523226,3.87096774 112.803871,3.87096774 C114.636774,3.87096774 116.129032,5.36129032 116.129032,7.19612903 C116.129032,8.81419355 114.971613,10.1903226 113.37871,10.4690323 L7.85806452,28.983871 Z M61.9354839,23.4251613 L61.9354839,38.7096774 L58.0645161,38.7096774 L58.0645161,24.1045161 L61.9354839,23.4251613 Z M25.1922581,77.4174194 C27.5225806,77.4174194 29.4193548,79.1535484 29.4193548,81.2883871 C29.4154839,81.6329032 29.3632258,81.9658065 29.2703226,82.2890323 C27.8206452,82.436129 26.5122581,82.916129 25.5232258,83.8490323 C25.3858065,83.9767742 25.2832258,84.1316129 25.1632258,84.2709677 C25.0412903,84.1316129 24.9387097,83.9767742 24.8012903,83.8490323 C23.823871,82.9277419 22.5387097,82.4496774 21.1122581,82.2929032 C21.0174194,81.9696774 20.9651613,81.6348387 20.9651613,81.2883871 C20.9651613,79.1535484 22.86,77.4174194 25.1922581,77.4174194 Z M19.2406452,94.796129 C15.843871,98.0012903 11.7058065,98.883871 10.2774194,97.5367742 C9.87870968,97.1593548 9.67741935,96.5980645 9.67741935,95.8645161 C9.67741935,94.3374194 10.5987097,91.8387097 13.1806452,89.403871 C15.5593548,87.1645161 18.3,86.0574194 20.22,86.0574194 C21.0445161,86.0574194 21.716129,86.2587097 22.1458065,86.6632258 C22.5425806,87.0387097 22.7458065,87.6019355 22.7458065,88.3354839 C22.7458065,90.2845161 21.4025806,92.7580645 19.2406452,94.796129 Z M25.1903226,100.645161 C23.9496774,100.645161 22.7070968,99.483871 21.8903226,97.62 C21.8922581,97.6180645 21.8941935,97.616129 21.896129,97.616129 C23.2625806,96.3290323 24.3619355,94.8929032 25.1632258,93.423871 C25.9645161,94.8929032 27.0619355,96.3270968 28.4283871,97.616129 C28.4419355,97.6277419 28.4554839,97.6374194 28.4670968,97.6509677 C27.6522581,99.4741935 26.4154839,100.645161 25.1903226,100.645161 Z M27.5767742,88.3374194 C27.5767742,87.603871 27.7780645,87.0406452 28.1767742,86.6651613 C28.6064516,86.2606452 29.2780645,86.0593548 30.1025806,86.0593548 C32.0225806,86.0593548 34.7632258,87.1645161 37.1419355,89.4058065 C39.723871,91.8387097 40.6451613,94.3374194 40.6451613,95.8645161 C40.6451613,96.5980645 40.4419355,97.1593548 40.0451613,97.5348387 C38.6129032,98.883871 34.4787097,98.0012903 31.0819355,94.7980645 C28.9219355,92.76 27.5767742,90.2864516 27.5767742,88.3374194 Z M92.9032258,90.9677419 C92.9032258,94.1690323 90.2980645,96.7741935 87.0967742,96.7741935 L52.2580645,96.7741935 L52.2580645,100.645161 L86.9825806,100.645161 C86.0167742,109.34129 78.6290323,116.129032 69.6774194,116.129032 L50.3225806,116.129032 C41.4154839,116.129032 34.0587097,109.405161 33.0367742,100.769032 C34.7709677,101.576129 36.5129032,102.003871 38.1077419,102.003871 C39.7277419,102.003871 41.1754839,101.545161 42.3135484,100.645161 L48.3870968,100.645161 L48.3870968,96.7741935 L44.4348387,96.7741935 C44.4716129,96.476129 44.516129,96.18 44.516129,95.8645161 C44.516129,92.8412903 42.7509677,89.3729032 39.7935484,86.5877419 C37.7206452,84.6348387 35.3845161,83.3419355 33.1354839,82.6935484 C33.2245161,82.2309677 33.2864516,81.7645161 33.2864516,81.2903226 L87.0967742,81.2903226 C90.2980645,81.2903226 92.9032258,83.8954839 92.9032258,87.0967742 L92.9032258,90.9677419 Z M94.8387097,67.7419355 L94.8387097,71.6129032 C94.8387097,74.8141935 92.2335484,77.4193548 89.0322581,77.4193548 L87.0967742,77.4193548 L32.9032258,77.4193548 L32.16,77.4193548 C31.5909677,76.4864516 30.8380645,75.6735484 29.9264516,75.0406452 L32.9303226,70.7941935 L29.7696774,68.5606452 L26.1735484,73.6432258 C25.9664516,73.6180645 25.7612903,73.5909677 25.5483871,73.5832258 C25.3219355,72.9503226 25.1612903,72.2941935 25.1612903,71.6129032 L25.1612903,67.7419355 C25.1612903,64.5406452 27.7664516,61.9354839 30.9677419,61.9354839 L81.2903226,61.9354839 L81.2903226,58.0645161 L30.9677419,58.0645161 C30.3348387,58.0645161 29.7193548,58.1341935 29.1212903,58.2522581 C30,49.4632258 37.436129,42.5806452 46.4516129,42.5806452 L54.1935484,42.5806452 L65.8064516,42.5806452 L73.5483871,42.5806452 C76.7012903,42.5806452 79.7109677,43.4574194 82.3819355,45.0406452 C81.6832258,46.5193548 81.2903226,48.0135484 81.2903226,49.4129032 C81.2903226,51.2283871 81.9174194,52.7806452 83.1058065,53.8993548 C84.2883871,55.016129 85.8967742,55.5522581 87.6987097,55.5522581 C88.5290323,55.5522581 89.4019355,55.4283871 90.2922581,55.2058065 C90.5787097,56.2006452 90.7741935,57.2167742 90.8787097,58.2503226 C90.2787097,58.1341935 89.6632258,58.0645161 89.0322581,58.0645161 L85.1612903,58.0645161 L85.1612903,61.9354839 L89.0322581,61.9354839 C92.2335484,61.9354839 94.8387097,64.5406452 94.8387097,67.7419355 Z M94.7245161,48.3464516 C91.3258065,51.5477419 87.1896774,52.4303226 85.7593548,51.0832258 C85.3625806,50.7077419 85.1612903,50.1464516 85.1612903,49.4129032 C85.1612903,47.8858065 86.0825806,45.3870968 88.6645161,42.9522581 C91.0432258,40.7129032 93.783871,39.6077419 95.703871,39.6077419 C96.5283871,39.6077419 97.2,39.8090323 97.6296774,40.2135484 C98.0264516,40.5890323 98.2296774,41.1522581 98.2296774,41.8858065 C98.2296774,43.8348387 96.8864516,46.3083871 94.7245161,48.3464516 Z M100.674194,54.1935484 C99.4335484,54.1935484 98.1909677,53.0322581 97.3741935,51.1683871 C97.376129,51.1664516 97.3780645,51.1645161 97.38,51.1645161 C98.7464516,49.8774194 99.8458065,48.4412903 100.647097,46.9722581 C101.448387,48.4412903 102.545806,49.8754839 103.912258,51.1645161 C103.925806,51.176129 103.939355,51.1858065 103.950968,51.1993548 C103.136129,53.0225806 101.899355,54.1935484 100.674194,54.1935484 Z M115.529032,51.0851613 C114.096774,52.4322581 109.964516,51.5496774 106.563871,48.3483871 C104.403871,46.3103226 103.05871,43.8367742 103.05871,41.8877419 C103.05871,41.1541935 103.26,40.5909677 103.65871,40.2154839 C104.088387,39.8109677 104.76,39.6096774 105.584516,39.6096774 C107.504516,39.6096774 110.245161,40.7148387 112.623871,42.956129 C115.207742,45.3870968 116.129032,47.8858065 116.129032,49.4129032 C116.129032,50.1464516 115.925806,50.7077419 115.529032,51.0851613 Z" id="Shape" fill="#EB6D2F"></path>
                <rect id="Rectangle" fill="#F6BB05" x="72" y="46" width="4" height="4"></rect>
                <rect id="Rectangle" fill="#F6BB05" x="43" y="50" width="4" height="4"></rect>
                <rect id="Rectangle" fill="#F6BB05" x="62" y="89" width="4" height="4"></rect>
                <rect id="Rectangle" fill="#F6BB05" x="75" y="104" width="4" height="4"></rect>
            </g>
        </g>
    </g>
</svg>