<?xml version="1.0" encoding="UTF-8"?>
<svg width="242px" height="265px" viewBox="0 0 242 265" version="1.1" xmlns="http://www.w3.org/2000/svg" xmlns:xlink="http://www.w3.org/1999/xlink">
    <!-- Generator: Sketch 58 (84663) - https://sketch.com -->
    <title>icon4</title>
    <desc>Created with Sketch.</desc>
    <g id="Page-1" stroke="none" stroke-width="1" fill="none" fill-rule="evenodd">
        <g id="icon4" transform="translate(-4.000000, 9.000000)">
            <path d="M136.891514,6.78318171 L221.144689,54.8430521 C228.631388,59.1136302 233.253175,67.0708429 233.253175,75.6899201 L233.253175,171.31008 C233.253175,179.929157 228.631388,187.88637 221.144689,192.156948 L136.891514,240.216818 C129.521224,244.420994 120.478776,244.420994 113.108486,240.216818 L28.855311,192.156948 C21.3686125,187.88637 16.7468245,179.929157 16.7468245,171.31008 L16.7468245,75.6899201 C16.7468245,67.0708429 21.3686125,59.1136302 28.855311,54.8430521 L113.108486,6.78318171 C120.478776,2.57900573 129.521224,2.57900573 136.891514,6.78318171 Z" id="ффффф" stroke="#F9F4F0" stroke-width="24" fill="#FFFFFF" stroke-linejoin="round"></path>
            <g id="002-honey-6" transform="translate(73.000000, 64.000000)" fill-rule="nonzero">
                <path d="M84,72 L77.2262789,58.5384615 L61.7434878,58.5384615 L55.9374412,47 L38.0625588,47 L32.2565122,58.5384615 L16.7737211,58.5384615 L10,72 L16.7737211,85.4615385 L32.2565122,85.4615385 L38.0625588,97 L55.9374412,97 L61.7434878,85.4615385 L77.2262789,85.4615385 L84,72 Z M40.4546501,50.8461538 L53.5453499,50.8461538 L58.3837221,60.4615385 L53.5453499,70.0769231 L40.4546501,70.0769231 L35.6162779,60.4615385 L40.4546501,50.8461538 Z M19.1658123,81.6153846 L14.3274401,72 L19.1658123,62.3846154 L32.2565122,62.3846154 L37.0948844,72 L32.2565122,81.6153846 L19.1658123,81.6153846 Z M53.5453499,93.1538462 L40.4546501,93.1538462 L35.6162779,83.5384615 L40.4546501,73.9230769 L53.5453499,73.9230769 L58.3837221,83.5384615 L53.5453499,93.1538462 Z M61.7434878,81.6153846 L56.9051156,72 L61.7434878,62.3846154 L74.8341877,62.3846154 L79.6725599,72 L74.8341877,81.6153846 L61.7434878,81.6153846 Z" id="Shape" fill="#F6BB05"></path>
                <path d="M113.870777,86.6380645 C111.072392,83.8451613 107.78337,81.8322581 104.616522,80.9670968 C103.749663,80.7309677 102.915771,80.5896774 102.116787,80.5335484 C102.537611,79.5793548 102.781961,78.5283871 102.781961,77.4193548 C102.781961,75.7645161 102.248658,74.2354839 101.358527,72.9754839 L101.773534,72.1451613 C103.309445,69.0774194 105.950748,66.7916129 109.212621,65.7058065 L107.985055,62.036129 C103.741905,63.4470968 100.303558,66.423871 98.3041579,70.4148387 L98.2983401,70.4264516 C97.301549,69.9580645 96.1980974,69.6774194 95.0248316,69.6774194 C94.3519006,69.6774194 93.7080589,69.7896774 93.0855493,69.9522581 L93.0855493,43.1245161 C93.0855493,37.2851613 90.1805044,31.8677419 85.3129059,28.6316129 L81.4498556,26.0612903 L81.4498556,23.2258065 L83.3891379,23.2258065 C86.5967108,23.2258065 89.2069847,20.6206452 89.2069847,17.4193548 L89.2069847,5.80645161 C89.2069847,2.60516129 86.5967108,0 83.3891379,0 L9.69641139,0 C6.4888385,0 3.87856455,2.60516129 3.87856455,5.80645161 L3.87856455,17.4193548 C3.87856455,20.6206452 6.4888385,23.2258065 9.69641139,23.2258065 L11.6356937,23.2258065 L11.6356937,26.0612903 L7.77264337,28.6316129 C2.90504485,31.8696774 0,37.2870968 0,43.1245161 L0,110.322581 C0,115.65871 4.34981015,120 9.69641139,120 L83.3891379,120 C86.2301864,120 88.8559747,118.763226 90.6730821,116.688387 C92.018944,117.570968 93.4850414,118.064516 95.0248316,118.064516 C100.200776,118.064516 104.599068,112.587097 106.102012,104.682581 C108.361276,105.828387 110.614722,106.441935 112.641272,106.441935 C114.755089,106.441935 116.620679,105.789677 117.983994,104.429032 C121.827652,100.590968 120.02218,92.7754839 113.870777,86.6380645 Z M95.0248316,73.5483871 C97.1619206,73.5483871 98.9033961,75.2845161 98.9033961,77.4193548 C98.9033961,79.5541935 97.1619206,81.2903226 95.0248316,81.2903226 C92.8858032,81.2903226 91.146267,79.5541935 91.146267,77.4193548 C91.146267,75.2845161 92.8858032,73.5483871 95.0248316,73.5483871 Z M97.3267596,96.8903226 C96.3823292,96.8245161 95.439838,96.8051613 94.4876504,96.8187097 C95.0112566,96.056129 95.4747451,95.2877419 95.8819943,94.503871 C96.3008793,95.3109677 96.7818213,96.1045161 97.3267596,96.8903226 Z M92.9769495,85.2696774 C93.9136228,86.2045161 94.1230653,87.956129 93.5451592,90.0677419 C92.8644711,92.5529032 91.1579027,95.2954839 88.8637318,97.5870968 C84.0135868,102.427742 78.4691788,103.627742 76.5221394,101.692258 C74.5770392,99.7490323 75.7871514,94.2135484 80.6353571,89.3748387 C82.9314673,87.0832258 85.6794303,85.3819355 88.1694687,84.7025806 C90.2891043,84.1296774 92.0383369,84.3329032 92.9769495,85.2696774 Z M77.5712911,3.87096774 L83.3891379,3.87096774 C84.4596217,3.87096774 85.3284202,4.73806452 85.3284202,5.80645161 L85.3284202,11.6129032 L77.5712911,11.6129032 L77.5712911,3.87096774 Z M65.9355974,3.87096774 L73.6927265,3.87096774 L73.6927265,11.6129032 L65.9355974,11.6129032 L65.9355974,3.87096774 Z M54.2999038,3.87096774 L62.0570329,3.87096774 L62.0570329,11.6129032 L54.2999038,11.6129032 L54.2999038,3.87096774 Z M42.6642101,3.87096774 L50.4213392,3.87096774 L50.4213392,11.6129032 L42.6642101,11.6129032 L42.6642101,3.87096774 Z M31.0285164,3.87096774 L38.7856455,3.87096774 L38.7856455,11.6129032 L31.0285164,11.6129032 L31.0285164,3.87096774 Z M19.3928228,3.87096774 L27.1499519,3.87096774 L27.1499519,11.6129032 L19.3928228,11.6129032 L19.3928228,3.87096774 Z M7.75712911,5.80645161 C7.75712911,4.73806452 8.62592757,3.87096774 9.69641139,3.87096774 L15.5142582,3.87096774 L15.5142582,11.6129032 L7.75712911,11.6129032 L7.75712911,5.80645161 L7.75712911,5.80645161 Z M9.69641139,19.3548387 C8.62592757,19.3548387 7.75712911,18.4877419 7.75712911,17.4193548 L7.75712911,15.483871 L85.3284202,15.483871 L85.3284202,17.4193548 C85.3284202,18.4877419 84.4596217,19.3548387 83.3891379,19.3548387 L9.69641139,19.3548387 Z M3.87856455,43.1245161 C3.87856455,42.9425806 3.90571451,42.7625806 3.91153235,42.5806452 L77.5712911,42.5806452 L77.5712911,38.7096774 L4.63876321,38.7096774 C5.59289009,35.9458065 7.41193686,33.5225806 9.92330741,31.8522581 L15.5142582,28.1322581 L15.5142582,23.2258065 L77.5712911,23.2258065 L77.5712911,28.1322581 L83.1622419,31.8522581 C85.6736124,33.5225806 87.4926592,35.9458065 88.4467861,38.7096774 L81.4498556,38.7096774 L81.4498556,42.5806452 L89.1740169,42.5806452 C89.1798348,42.7625806 89.2069847,42.9425806 89.2069847,43.1245161 L89.2069847,66.7122581 C87.2909739,64.5832258 84.8591139,62.9632258 82.0626688,62.0341935 L80.8351032,65.703871 C84.0969759,66.7916129 86.7382784,69.0754839 88.27419,72.1432258 L88.6911357,72.9735484 C87.8010051,74.2354839 87.2677025,75.7645161 87.2677025,77.4193548 C87.2677025,78.6212903 87.5682912,79.7477419 88.0589296,80.763871 C87.7583409,80.8258065 87.4577521,80.8819355 87.147467,80.9670968 C83.9786797,81.8303226 80.6915963,83.8432258 77.8932119,86.6380645 C73.3708057,91.1516129 71.2065666,96.5670968 71.9008297,100.645161 L3.87856455,100.645161 L3.87856455,43.1245161 Z M83.3891379,116.129032 L9.69641139,116.129032 C6.4888385,116.129032 3.87856455,113.523871 3.87856455,110.322581 L3.87856455,104.516129 L73.6927265,104.516129 L73.6927265,104.328387 C73.723755,104.36129 73.7470264,104.398065 73.7799942,104.430968 C75.1433097,105.791613 77.0088992,106.443871 79.1227169,106.443871 C80.6780213,106.443871 82.3690754,106.074194 84.0911581,105.392903 C84.8435996,108.886452 86.1564937,111.851613 87.8514264,114.032903 C86.7596105,115.34129 85.1441884,116.129032 83.3891379,116.129032 Z M95.0248316,114.193548 C92.856714,114.193548 90.7719855,112.170968 89.3097667,108.983226 C92.9013175,108.224516 97.1270136,108.21871 100.7302,108.98129 C99.2757383,112.157419 97.2026456,114.193548 95.0248316,114.193548 Z M102.002369,105.307742 C97.6157127,104.303226 92.4261933,104.297419 88.0472939,105.294194 C87.9037871,104.715484 87.7738551,104.125161 87.6671946,103.511613 C88.7764641,102.785806 89.86828,101.932258 90.9213103,100.952903 C94.3169935,100.457419 98.1082904,100.610323 101.29841,101.374839 C101.707598,101.736774 102.122605,102.075484 102.54149,102.400645 C102.411558,103.410968 102.231205,104.384516 102.002369,105.307742 Z M115.241849,101.692258 C113.292871,103.627742 107.750402,102.423871 102.900257,97.5870968 C100.606086,95.2954839 98.8995176,92.5529032 98.2188295,90.0677419 C97.6409234,87.9541935 97.8503659,86.2045161 98.7870392,85.2696774 C99.376581,84.6812903 100.282226,84.3812903 101.403131,84.3812903 C102.068305,84.3812903 102.807171,84.4896774 103.596459,84.7025806 C106.086498,85.3819355 108.834461,87.0832258 111.130571,89.3748387 C115.976837,94.2135484 117.186949,99.7490323 115.241849,101.692258 Z" id="Shape" fill="#EB6D2F"></path>
            </g>
        </g>
    </g>
</svg>