<?xml version="1.0" encoding="UTF-8"?>
<svg width="242px" height="265px" viewBox="0 0 242 265" version="1.1" xmlns="http://www.w3.org/2000/svg" xmlns:xlink="http://www.w3.org/1999/xlink">
    <!-- Generator: Sketch 58 (84663) - https://sketch.com -->
    <title>icon1</title>
    <desc>Created with Sketch.</desc>
    <g id="Page-1" stroke="none" stroke-width="1" fill="none" fill-rule="evenodd">
        <g id="icon1" transform="translate(-4.000000, 9.000000)">
            <path d="M136.891514,6.78318171 L221.144689,54.8430521 C228.631388,59.1136302 233.253175,67.0708429 233.253175,75.6899201 L233.253175,171.31008 C233.253175,179.929157 228.631388,187.88637 221.144689,192.156948 L136.891514,240.216818 C129.521224,244.420994 120.478776,244.420994 113.108486,240.216818 L28.855311,192.156948 C21.3686125,187.88637 16.7468245,179.929157 16.7468245,171.31008 L16.7468245,75.6899201 C16.7468245,67.0708429 21.3686125,59.1136302 28.855311,54.8430521 L113.108486,6.78318171 C120.478776,2.57900573 129.521224,2.57900573 136.891514,6.78318171 Z" id="ффффф" stroke="#FFFFFF" stroke-width="24" fill="#F9F4F0" stroke-linejoin="round"></path>
            <g id="011-insignia" transform="translate(77.000000, 63.000000)" fill-rule="nonzero">
                <polygon id="Path" fill="#F6BB05" points="35.7635976 77 61.2383482 77 65.7040183 70.098 62.4311394 68.0061333 59.1135065 73.1333333 37.8884393 73.1333333 21.6252278 48 37.8884393 22.8666667 59.1135065 22.8666667 75.3747722 48 64.7933718 64.356 68.0662507 66.4478667 80 48 61.2383482 19 35.7635976 19 17 48"></polygon>
                <path d="M29,55.3381419 C29,57.1557756 29.6318,58.7098719 30.8291,59.8299063 C32.02055,60.948003 33.641,61.4828292 35.45645,61.4828292 C37.51955,61.4828292 39.82835,60.775541 42.04745,59.4578534 C43.5587,62.2947572 45.9104,64 48.52925,64 C51.1598,64 53.49395,62.3102594 54.99935,59.4888578 C57.2048,60.7891054 59.49605,61.4847669 61.5416,61.4847669 C63.35705,61.4847669 64.9775,60.9499408 66.16895,59.8318441 C67.3682,58.7118097 68,57.1577134 68,55.3381419 C68,52.311336 66.2216,48.8388416 63.242,46.0503822 C61.15355,44.0951663 58.7999,42.800732 56.534,42.1515771 C56.6237,41.6884487 56.6861,41.2195069 56.6861,40.7466896 C56.6861,38.1694477 55.34255,35.9003122 53.3009,34.4896114 L56.3273,30.2381311 L53.14295,28.0019378 L49.51985,33.0905372 C49.19225,33.0517817 48.86855,32.9955862 48.52925,32.9955862 C48.18995,32.9955862 47.86625,33.0517817 47.53865,33.0905372 L43.9136,28 L40.72925,30.2400689 L43.75565,34.4896114 C41.714,35.9003122 40.37045,38.1694477 40.37045,40.7466896 C40.37045,41.2156314 40.4309,41.6787598 40.51865,42.1380127 C38.2352,42.7813543 35.8601,44.0796641 33.75605,46.0523199 C30.7784,48.8388416 29,52.311336 29,55.3381419 Z M48.52925,60.1244483 C47.2793,60.1244483 46.0274,58.9617828 45.2045,57.0957046 C45.20645,57.0937668 45.2084,57.091829 45.21035,57.091829 C46.58705,55.8032081 47.69465,54.3653784 48.50195,52.8946065 C49.30925,54.3653784 50.4149,55.8012703 51.7916,57.091829 C51.80525,57.1034557 51.8189,57.1131446 51.8306,57.126709 C51.00965,58.9520939 49.7636,60.1244483 48.52925,60.1244483 Z M53.4764,45.5213694 C55.4108,45.5213694 58.172,46.6278394 60.56855,48.8717838 C63.1718,51.3075681 64.1,53.8092367 64.1,55.3381419 C64.1,56.0725589 63.89525,56.6345139 63.4955,57.0104425 C62.05055,58.3591345 57.88925,57.4755087 54.4631,54.2704274 C52.2869,52.2299494 50.93165,49.7534718 50.93165,47.8021316 C50.93165,47.0677145 51.13445,46.5038217 51.53615,46.1278932 C51.96905,45.7228981 52.6457,45.5213694 53.4764,45.5213694 Z M48.5312,36.8711379 C50.87705,36.8711379 52.7861,38.6093229 52.7861,40.7466896 C52.7861,41.089676 52.73345,41.4229734 52.63985,41.746582 C51.1793,41.8938529 49.8611,42.3744214 48.86465,43.3084293 C48.7262,43.4363225 48.62285,43.5913446 48.50195,43.7308645 C48.3791,43.5913446 48.27575,43.4363225 48.1373,43.3084293 C47.15255,42.386048 45.85775,41.9074174 44.4206,41.7523953 C44.32505,41.4287867 44.2724,41.0935515 44.2724,40.7466896 C44.2724,38.6093229 46.18145,36.8711379 48.5312,36.8711379 Z M36.4295,48.8698461 C38.82605,46.6278394 41.58725,45.5213694 43.52165,45.5213694 C44.35235,45.5213694 45.029,45.7228981 45.4619,46.1278932 C45.86165,46.5038217 46.0664,47.0677145 46.0664,47.8021316 C46.0664,49.7534718 44.7131,52.2299494 42.53495,54.2704274 C39.1127,57.4755087 34.9436,58.3591345 33.50255,57.0104425 C33.1028,56.6345139 32.9,56.0725589 32.9,55.3381419 C32.9,53.8092367 33.8282,51.3075681 36.4295,48.8698461 Z" id="Shape" fill="#EB6D2F"></path>
                <path d="M82.79532,82.7320162 C88.08958,77.4418041 88.08958,68.8309129 82.79532,63.5426393 C82.63624,63.3836809 82.47328,63.2324766 82.31226,63.0909649 C82.46164,62.7478474 82.59162,62.3950374 82.7313,62.0461044 C82.73518,62.0364118 82.741,62.0247807 82.74488,62.0150881 C82.97186,62.0267192 83.19884,62.0325348 83.42,62.0325348 C90.90646,62.0325348 97,55.9436538 97,48.4629178 C97,40.9821818 90.90646,34.8933008 83.42,34.8933008 C83.19884,34.8933008 82.97186,34.8991164 82.74294,34.912686 C82.73906,34.9029934 82.73324,34.8913623 82.72936,34.8816697 C82.58968,34.5327367 82.4597,34.1799267 82.31032,33.8368092 C82.47134,33.6952975 82.6343,33.5440932 82.79338,33.3851348 C88.08764,28.0949227 88.08764,19.48597 82.79338,14.1957579 C77.49912,8.90748429 68.88358,8.90554577 63.58932,14.1957579 C63.43024,14.3547162 63.27892,14.5175517 63.1373,14.6784485 C62.79392,14.5291828 62.44084,14.3993021 62.09164,14.2597289 C62.08194,14.2558519 62.0703,14.2500363 62.0606,14.2461593 C62.07418,14.0174143 62.08,13.7906079 62.08,13.569617 C62.08,6.08888099 55.98646,0 48.5,0 C41.01354,0 34.92,6.08888099 34.92,13.569617 C34.92,13.7906079 34.92582,14.0174143 34.9394,14.2461593 C34.9297,14.2500363 34.91806,14.2539134 34.90836,14.2597289 C34.55916,14.3993021 34.20608,14.5291828 33.8627,14.6784485 C33.72108,14.5175517 33.56976,14.3547162 33.41068,14.1957579 C28.11836,8.90748429 19.50282,8.90748429 14.20662,14.1957579 C8.91236,19.48597 8.91236,28.0968612 14.20662,33.3851348 C14.3657,33.5440932 14.52866,33.6952975 14.68968,33.8368092 C14.5403,34.1799267 14.41032,34.5327367 14.27064,34.8816697 C14.26676,34.8913623 14.26094,34.9029934 14.25706,34.912686 C14.0262,34.8991164 13.80116,34.8933008 13.58,34.8933008 C6.09354,34.8933008 0,40.9821818 0,48.4629178 C0,55.9436538 6.09354,62.0325348 13.58,62.0325348 C13.80116,62.0325348 14.0262,62.0267192 14.25706,62.0131496 C14.26094,62.0228422 14.26676,62.0344733 14.27064,62.0441659 C14.41032,62.3930989 14.5403,62.7459089 14.68968,63.0890264 C14.52866,63.2305381 14.3657,63.3817424 14.20662,63.5407008 C8.91236,68.8309129 8.91236,77.4398656 14.20662,82.7300777 C14.43748,82.9607612 14.68192,83.166244 14.92442,83.3775423 L2.78972,102.402145 L20.39134,104.602362 L29.197,120 L45.4348,96.563333 C46.42226,96.7920779 47.44464,96.9258356 48.5,96.9258356 C49.63296,96.9258356 50.72712,96.7707542 51.78054,96.5090545 L68.05714,120 L76.8628,104.602362 L94.46442,102.402145 L82.23854,83.2321535 C82.42478,83.0673796 82.61684,82.9103598 82.79532,82.7320162 Z M84.03692,38.8323668 C89.0945,39.1580376 93.12,43.3297255 93.12,48.4629178 C93.12,53.59611 89.0945,57.767798 84.03692,58.0934688 C84.87306,55.0170428 85.36,51.7991051 85.36,48.4629178 C85.36,45.1267305 84.87306,41.9087928 84.03692,38.8323668 Z M12.96114,58.0934688 C7.9055,57.767798 3.88,53.59611 3.88,48.4629178 C3.88,43.3297255 7.9055,39.1580376 12.96114,38.8323668 C12.125,41.9087928 11.64,45.1267305 11.64,48.4629178 C11.64,51.7991051 12.125,55.0170428 12.96114,58.0934688 Z M80.05216,79.9909536 C76.42048,83.6198569 70.61988,83.7245368 66.8136,80.382534 C72.47452,77.1258259 77.18484,72.4191073 80.44404,66.7625155 C83.7886,70.5639468 83.68384,76.3581733 80.05216,79.9909536 Z M80.05216,16.934882 C83.68384,20.5657238 83.7886,26.3599502 80.44404,30.16332 C77.18484,24.5067283 72.47452,19.8000097 66.8136,16.5433016 C70.61794,13.2012988 76.41854,13.3059787 80.05216,16.934882 Z M48.5,3.87703342 C53.63712,3.87703342 57.812,7.8994556 58.13792,12.9512302 C55.05914,12.117668 51.83874,11.6311003 48.5,11.6311003 C45.16126,11.6311003 41.94086,12.117668 38.86208,12.9512302 C39.188,7.8994556 43.36288,3.87703342 48.5,3.87703342 Z M34.38262,18.7260714 C35.34486,18.2685815 36.32068,17.8634315 37.29844,17.5086829 C37.51766,17.4292038 37.733,17.343909 37.95222,17.2683069 L38.8776,16.9484516 C41.92534,16.0160251 45.1535,15.5081337 48.5,15.5081337 C51.8465,15.5081337 55.07466,16.0160251 58.12046,16.9465131 L59.04584,17.2663684 C59.267,17.3419705 59.48234,17.4272652 59.69962,17.5067444 C60.67738,17.861493 61.6532,18.266643 62.61544,18.7241329 C69.4617,21.9827795 75.0004,27.5172447 78.2596,34.3563317 C78.71744,35.317836 79.1229,36.2929099 79.47792,37.2699223 C79.55746,37.4889747 79.64282,37.7022115 79.71848,37.9232024 L80.03858,38.8478749 C80.97172,41.8932847 81.48,45.1189765 81.48,48.4629178 C81.48,51.8068591 80.97172,55.0325509 80.04052,58.0760222 L79.72042,59.0006946 C79.64476,59.2216855 79.5594,59.4368609 79.47986,59.6539748 C79.12484,60.6309872 78.71938,61.6060611 78.26154,62.5675654 C75.0004,69.4085909 69.4617,74.9411176 62.61738,78.1997641 C61.65514,78.6591926 60.67738,79.0643426 59.69962,79.4190912 C59.4804,79.4985703 59.267,79.5838651 59.04584,79.6594672 L58.12046,79.9793225 C55.07466,80.9098105 51.8465,81.4177019 48.5,81.4177019 C45.1535,81.4177019 41.92534,80.9098105 38.87954,79.9793225 L37.95416,79.6594672 C37.733,79.5838651 37.51766,79.4985703 37.30038,79.4190912 C36.32262,79.0643426 35.3468,78.6591926 34.38456,78.2017027 C27.5383,74.9430561 22.00154,69.4085909 18.7404,62.5695039 C18.28256,61.6079996 17.8771,60.6329257 17.52208,59.6559133 C17.44254,59.4368609 17.35718,59.2236241 17.28152,59.0026332 L16.96142,58.0779607 C16.02828,55.0325509 15.52,51.8068591 15.52,48.4629178 C15.52,45.1189765 16.02828,41.8932847 16.95948,38.8498134 L17.27958,37.9251409 C17.35524,37.70415 17.4406,37.4889747 17.52014,37.2718608 C17.87516,36.2948484 18.28062,35.3197745 18.73846,34.3582702 C21.9996,27.5172447 27.5383,21.984718 34.38262,18.7260714 Z M16.94784,16.934882 C20.57952,13.3059787 26.38012,13.2012988 30.1864,16.5433016 C24.52548,19.8000097 19.81516,24.5067283 16.55596,30.16332 C13.2114,26.3618888 13.31616,20.5657238 16.94784,16.934882 Z M16.55596,66.7625155 C19.81516,72.4191073 24.52548,77.1258259 30.1864,80.382534 C26.38206,83.7245368 20.58146,83.6198569 16.94784,79.9909536 C13.31616,76.3581733 13.2114,70.5639468 16.55596,66.7625155 Z M29.51128,112.734439 L22.79694,100.992844 L9.35856,99.3160267 L18.18944,85.4711403 C23.19464,87.7392049 29.29982,86.8377946 33.41068,82.7300777 C33.56976,82.5711193 33.72108,82.4082839 33.8627,82.247387 C34.20608,82.3966528 34.55916,82.5265334 34.90836,82.6661067 C34.91806,82.6699837 34.9297,82.6757992 34.9394,82.6796763 C34.92582,82.9103598 34.92,83.1352277 34.92,83.3562186 C34.92,88.3730998 37.66704,92.7522091 41.7294,95.1016914 L29.51128,112.734439 Z M48.5,93.0488022 C43.36288,93.0488022 39.188,89.02638 38.86208,83.9746054 C41.94086,84.8101061 45.16126,85.2947353 48.5,85.2947353 C51.83874,85.2947353 55.05914,84.8101061 58.13792,83.9746054 C57.812,89.02638 53.63712,93.0488022 48.5,93.0488022 Z M87.89558,99.3160267 L74.4572,100.992844 L67.74286,112.734439 L55.44908,94.9911959 C59.4125,92.62039 62.08,88.2974977 62.08,83.3562186 C62.08,83.1352277 62.07418,82.9103598 62.0606,82.6796763 C62.0703,82.6757992 62.08194,82.6699837 62.09164,82.6661067 C62.44084,82.5265334 62.79392,82.3966528 63.1373,82.247387 C63.27892,82.4082839 63.43024,82.5711193 63.58932,82.7300777 C67.75256,86.8901346 73.96444,87.7624671 79.0065,85.38003 L87.89558,99.3160267 Z" id="Shape" fill="#EB6D2F"></path>
            </g>
        </g>
    </g>
</svg>