<?xml version="1.0" encoding="UTF-8"?>
<svg width="158px" height="166px" viewBox="0 0 158 166" version="1.1" xmlns="http://www.w3.org/2000/svg" xmlns:xlink="http://www.w3.org/1999/xlink">
    <!-- Generator: Sketch 58 (84663) - https://sketch.com -->
    <title>Group 33 Copy 2</title>
    <desc>Created with Sketch.</desc>
    <defs>
        <polygon id="path-1" points="0.394888882 0.43475952 56.6812703 0.43475952 56.6812703 49.8599906 0.394888882 49.8599906"></polygon>
        <polygon id="path-3" points="0.588248684 0.151337931 59.6724474 0.151337931 59.6724474 45.3702 0.588248684 45.3702"></polygon>
    </defs>
    <g id="Page-1" stroke="none" stroke-width="1" fill="none" fill-rule="evenodd">
        <g id="Group-33-Copy-2">
            <g id="Group">
                <path d="M97.5962901,39.784657 C96.828469,39.3411841 96.5671854,38.3594379 97.0096042,37.5897874 L104.546408,25.8242644 L91.5239053,3.21357198 L65.477297,3.21357198 L52.4531913,25.8242644 L58.989995,37.5897874 C59.4324139,38.3594379 59.1711303,39.3411841 58.4033092,39.784657 C57.637091,40.22813 56.6560753,39.9646171 56.2136565,39.1965734 L49.2151983,26.6276574 C48.9282672,26.1311605 48.9282672,25.5189751 49.2151983,25.0208714 L63.1626128,0.803392994 C63.4495439,0.305289338 63.978523,0 64.5507821,0 L92.4488171,0 C93.0210763,0 93.5500554,0.305289338 93.8369864,0.803392994 L107.786004,25.0208714 C108.071332,25.5189751 108.071332,26.1311605 107.786004,26.6276574 L99.7859428,39.1965734 C99.4893939,39.7123517 98.9507971,40 98.3961705,40 C98.1252691,40 97.8495588,39.9308746 97.5962901,39.784657 Z" id="Fill-1" fill="#F7BD02"></path>
                <path d="M63.6343626,27 C63.357945,27 63.0766206,26.9313579 62.8181947,26.786092 C62.0347389,26.3455053 61.768135,25.3685523 62.2195625,24.6055073 L67.6219724,15.4745086 C69.2543082,12.7144567 72.2965372,11 75.5628444,11 L86.364393,11 C87.2672481,11 88,11.7135588 88,12.5963284 C88,13.4775017 87.2672481,14.1926569 86.364393,14.1926569 L75.5628444,14.1926569 C73.462725,14.1926569 71.5049034,15.2941235 70.4548438,17.0708371 L65.0524339,26.2018358 C64.7498466,26.7142572 64.2002826,27 63.6343626,27" id="Fill-3" fill="#EB6D2F"></path>
                <path d="M92.4485002,166 L64.5514998,166 C63.9776259,166 63.4486361,165.69247 63.1616992,165.19071 L49.2140004,140.795484 C48.9286665,140.293725 48.9286665,139.677046 49.2140004,139.176905 L57.23541,125.147061 C57.6778379,124.37338 58.6540646,124.106314 59.4251073,124.554661 C60.1913411,125.001388 60.454233,125.991959 60.0118051,126.76564 L52.4536624,139.986195 L65.4764305,162.762842 L91.5235695,162.762842 L104.546338,139.986195 L96.7942319,126.428975 C96.3518041,125.653676 96.614696,124.664724 97.3809297,124.217996 C98.1471635,123.76965 99.1281992,124.035097 99.5706271,124.810396 L107.786,139.176905 C108.071333,139.677046 108.071333,140.293725 107.786,140.795484 L93.8366978,165.19071 C93.5497609,165.69247 93.0207711,166 92.4485002,166" id="Fill-5" fill="#F7BD02"></path>
                <path d="M92.6766642,36 C92.3930922,36 92.1028084,35.9328205 91.8393717,35.7906498 C91.0356381,35.359451 90.7621337,34.4033145 91.2252454,33.6565281 L94.8680549,27.7822253 C95.3311665,27.0338766 96.3580663,26.777657 97.160122,27.2104181 C97.9638556,27.6416169 98.23736,28.5977535 97.7759263,29.3445398 L94.1314389,35.2188427 C93.8210198,35.7203457 93.2572317,36 92.6766642,36" id="Fill-7" fill="#EB6D2F"></path>
                <path d="M14.6343626,56 C14.357945,56 14.0766206,55.9313579 13.8181947,55.786092 C13.0347389,55.3455053 12.768135,54.3701487 13.2195625,53.6055073 L18.6219724,44.4729123 C20.2543082,41.7128604 23.2965372,40 26.5628444,40 L37.364393,40 C38.2672481,40 39,40.7135588 39,41.5963284 C39,42.4775017 38.2672481,43.1926569 37.364393,43.1926569 L26.5628444,43.1926569 C24.462725,43.1926569 22.5049034,44.2941235 21.4548438,46.0692407 L16.0524339,55.2018358 C15.7498466,55.7142572 15.2002826,56 14.6343626,56" id="Fill-9" fill="#EB6D2F"></path>
                <g id="Group-13" transform="translate(101.000000, 87.000000)">
                    <mask id="mask-2" fill="white">
                        <use xlink:href="#path-1"></use>
                    </mask>
                    <g id="Clip-12"></g>
                    <path d="M41.2121081,49.8599906 L13.4613784,49.8599906 C12.8905135,49.8599906 12.3642973,49.5571781 12.0788649,49.0631156 L0.608945946,29.2065844 C0.168837838,28.4431781 0.428756757,27.4693969 1.19256757,27.0279281 C1.95318919,26.5880531 2.92908108,26.8494281 3.37078378,27.6128344 L14.3814595,46.6724906 L40.292027,46.6724906 L53.2465135,24.2452406 L40.8740541,2.82683438 C40.4339459,2.06342813 40.6954595,1.08964688 41.4576757,0.649771875 C42.2214865,0.206709375 43.1957838,0.471271875 43.6374865,1.23308438 L56.4691892,23.4483656 C56.753027,23.9424281 56.753027,24.5496469 56.4691892,25.0421156 L42.593027,49.0631156 C42.3075946,49.5571781 41.7813784,49.8599906 41.2121081,49.8599906" id="Fill-11" fill="#F7BD02" mask="url(#mask-2)"></path>
                </g>
                <path d="M120.818195,127.786071 C120.034739,127.34544 119.768135,126.36839 120.219563,125.605268 L125.621972,116.473359 C127.254308,113.713031 130.296537,112 133.561209,112 L144.364393,112 C145.267248,112 146,112.71363 146,113.596488 C146,114.477749 145.267248,115.192975 144.364393,115.192975 L133.561209,115.192975 C131.461089,115.192975 129.504903,116.294552 128.454844,118.069846 L123.052434,127.201756 C122.749847,127.714229 122.200283,128 121.634363,128 C121.357945,128 121.074985,127.931351 120.818195,127.786071 Z" id="Fill-16" fill="#EB6D2F" transform="translate(133.000000, 120.000000) rotate(-179.000000) translate(-133.000000, -120.000000) "></path>
                <path d="M13.8181947,112.786092 C13.0347389,112.345505 12.768135,111.368552 13.2195625,110.605507 L18.6219724,101.474509 C20.2543082,98.7144567 23.2965372,97 26.5628444,97 L29.364393,97 C30.2672481,97 31,97.7135588 31,98.5963284 C31,99.4775017 30.2672481,100.192657 29.364393,100.192657 L26.5628444,100.192657 C24.462725,100.192657 22.5049034,101.294124 21.4548438,103.070837 L16.0524339,112.201836 C15.7498466,112.714257 15.2002826,113 14.6343626,113 C14.357945,113 14.0766206,112.931358 13.8181947,112.786092 Z" id="Fill-18" fill="#EB6D2F"></path>
                <g id="Group-22" transform="translate(98.000000, 28.000000)">
                    <mask id="mask-4" fill="white">
                        <use xlink:href="#path-3"></use>
                    </mask>
                    <g id="Clip-21"></g>
                    <path d="M48.0305974,45.3702 C47.7593079,45.3702 47.4832026,45.3005103 47.2295711,45.1530276 C46.46065,44.7057172 46.1989921,43.7154759 46.6420447,42.9391655 L56.2142289,26.1990621 L43.1730711,3.39271724 L17.08915,3.39271724 L4.04799211,26.1990621 L9.14470263,35.1128552 C9.58775526,35.8891655 9.32609737,36.8794069 8.55717632,37.3283379 C7.78504474,37.7740276 6.80743947,37.5082345 6.36438684,36.7335448 L0.803755263,27.0094069 C0.516413158,26.5069931 0.516413158,25.8895103 0.803755263,25.3887172 L14.7727553,0.961682759 C15.0584921,0.460889655 15.5898342,0.151337931 16.1629132,0.151337931 L44.0993079,0.151337931 C44.6739921,0.151337931 45.2037289,0.460889655 45.4894658,0.961682759 L59.4584658,25.3887172 C59.7442026,25.8895103 59.7442026,26.5069931 59.4584658,27.0094069 L49.4223605,44.5598552 C49.1253868,45.0800966 48.5860184,45.3702 48.0305974,45.3702" id="Fill-20" fill="#F7BD02" mask="url(#mask-4)"></path>
                </g>
                <path d="M112.634363,56 C112.357945,56 112.074985,55.9313579 111.818195,55.786092 C111.034739,55.3455053 110.768135,54.3685523 111.219563,53.6055073 L116.621972,44.4745086 C118.254308,41.7144567 121.296537,40 124.561209,40 L135.364393,40 C136.267248,40 137,40.7151551 137,41.5963284 C137,42.4775017 136.267248,43.1926569 135.364393,43.1926569 L124.561209,43.1926569 C122.461089,43.1926569 120.504903,44.2957198 119.454844,46.0708371 L114.052434,55.2018358 C113.749847,55.7142572 113.200283,56 112.634363,56" id="Fill-23" fill="#EB6D2F"></path>
                <path d="M92.4485002,166 L64.5514998,166 C63.9776259,166 63.4486361,165.69247 63.1616992,165.19071 L49.2140004,140.795484 C48.9286665,140.293725 48.9286665,139.677046 49.2140004,139.176905 L57.4277699,124.810396 C57.8701978,124.035097 58.8480275,123.76965 59.6190703,124.217996 C60.385304,124.664724 60.6481959,125.653676 60.2057681,126.428975 L52.4536624,139.986195 L65.4764305,162.762842 L91.5235695,162.762842 L104.546338,139.986195 L96.9881949,126.76564 C96.545767,125.991959 96.8070559,125.001388 97.5748927,124.554661 C98.3411264,124.106314 99.3205591,124.37338 99.76459,125.147061 L107.786,139.176905 C108.071333,139.677046 108.071333,140.293725 107.786,140.795484 L93.8366978,165.19071 C93.5497609,165.69247 93.0207711,166 92.4485002,166" id="Fill-25" fill="#F7BD02"></path>
                <path d="M43.768307,137 L15.665968,137 C15.0878701,137 14.5549866,136.693666 14.2659377,136.193858 L0.215575605,111.893516 C-0.071858535,111.395321 -0.071858535,110.781041 0.215575605,110.281233 L13.2098594,87.8076086 C13.6555438,87.036937 14.6389561,86.7692978 15.4156742,87.2175127 C16.1875479,87.6625031 16.4523749,88.6476085 16.0083053,89.4198924 L3.47908345,111.087375 L16.5977068,133.775432 L42.8365682,133.775432 L53.9867521,114.49413 C54.4324365,113.721846 55.4174636,113.457432 56.1925669,113.902422 C56.9644406,114.349025 57.2292676,115.33413 56.7835832,116.106414 L45.1667225,136.193858 C44.8776736,136.693666 44.3447901,137 43.768307,137" id="Fill-27" fill="#F7BD02"></path>
                <path d="M11.6255171,73 C11.0708905,73 10.5322937,72.7113007 10.2357448,72.1935773 L0.213996074,54.7280743 C-0.0713320247,54.2280922 -0.0713320247,53.6135981 0.213996074,53.1152288 L14.1630136,28.8064227 C14.4483417,28.3080535 14.9773207,28 15.5511829,28 L43.4476149,28 C44.0198741,28 44.5504561,28.3080535 44.8357842,28.8064227 L58.7848017,53.1152288 C59.0717328,53.6135981 59.0717328,54.2280922 58.7848017,54.7280743 L53.2321245,64.4051468 C52.7881027,65.1760869 51.8102929,65.4405935 51.0424718,64.997061 C50.2746507,64.5503029 50.0133671,63.5648543 50.455786,62.7923014 L55.5452057,53.9216516 L42.522703,31.2256908 L16.4760947,31.2256908 L3.45359207,53.9216516 L13.0120834,70.5807319 C13.4545022,71.3532848 13.1932186,72.3387334 12.4253975,72.7838787 C12.1721288,72.9306476 11.8964185,73 11.6255171,73" id="Fill-31" fill="#F7BD02"></path>
            </g>
            <g id="bee" transform="translate(26.000000, 55.000000)" fill="#EB6D2F" fill-rule="nonzero">
                <path d="M106,27.4691619 C106,24.2424801 104.824684,21.1304258 102.690813,18.7065489 C101.937012,17.8503474 100.628988,17.7649953 99.7691875,18.5154343 C98.9093867,19.2660796 98.8234688,20.5686274 99.5772695,21.4248288 C101.048848,23.0964112 101.859375,25.2429968 101.859375,27.4691619 C101.859375,32.5276159 97.7268242,36.642867 92.6471055,36.642867 L67.7720937,36.642867 L85.3813437,21.2854616 C86.2415586,20.5352287 86.3280977,19.2328871 85.574918,18.3762733 C84.8217383,17.5196594 83.5135078,17.4334827 82.6535,18.1835094 L69.7241914,29.4594747 C69.529375,25.6446054 67.3282187,22.349477 64.1540156,20.5987274 C63.9353906,17.2093818 62.1880469,14.2288605 59.591668,12.3348265 C60.1258086,7.71942019 64.0716172,4.12329151 68.847207,4.12329151 C69.9906406,4.12329151 70.9175195,3.2002927 70.9175195,2.06164575 C70.9175195,0.922998804 69.9906406,0 68.847207,0 C62.4203359,0 57.034418,4.50985009 55.7048633,10.517692 C54.8382305,10.3024562 53.9328828,10.1863855 53.000207,10.1863855 C52.0675312,10.1863855 51.1621836,10.3024562 50.2955508,10.517692 C48.9662031,4.50985009 43.5800781,0 37.153207,0 C36.0097734,0 35.0828945,0.922998804 35.0828945,2.06164575 C35.0828945,3.2002927 36.0097734,4.12329151 37.153207,4.12329151 C41.9287969,4.12329151 45.8746055,7.71942019 46.4087461,12.3348265 C43.8123672,14.2288605 42.0650234,17.2093818 41.8463984,20.5987274 C38.6721953,22.3496831 36.4710391,25.6448115 36.2764297,29.4594747 L22.8057344,17.7113925 C20.1886523,15.4291507 16.8318477,14.1721652 13.3531016,14.1721652 C5.99003516,14.1723714 0,20.1373311 0,27.4691619 C0,34.8009926 5.99003516,40.7661585 13.3528945,40.7661585 L14.4776953,40.7661585 C13.3555859,42.3480593 12.6935,44.275698 12.6935,46.3554863 C12.6935,51.6108275 16.9869141,55.8862684 22.2643477,55.8862684 C24.857207,55.8862684 27.3738789,54.8179236 29.1694609,52.9550205 L32.8119687,49.1758177 C32.3420078,54.4474458 33.9583008,59.8262796 37.5610586,64.0442007 L51.42325,80.2740945 C51.8166094,80.7346662 52.3931914,81 53.000207,81 C53.6074297,81 54.1838047,80.7346662 54.5771641,80.2740945 L68.4393555,64.0442007 C72.0419062,59.8262796 73.6584062,54.4474458 73.1884453,49.1758177 L76.8309531,52.9550205 C78.6263281,54.8177174 81.143207,55.8860623 83.7358594,55.8860623 C89.013293,55.8860623 93.306707,51.6106213 93.306707,46.3552801 C93.306707,44.2754919 92.6446211,42.3478531 91.5225117,40.7659523 L92.6473125,40.7659523 C100.009965,40.7661585 106,34.8011988 106,27.4691619 Z M63.2851055,40.7661585 C64.7575117,40.7661585 66.1293008,41.5308229 66.8650898,42.7618316 C68.2213516,45.0312912 68.959418,47.5347476 69.1024766,50.0542849 L36.8977305,50.0542849 C37.0407891,47.5347476 37.7788555,45.0314974 39.1351172,42.7620377 C39.8709063,41.531029 41.2426953,40.7663646 42.7148945,40.7663646 L63.2851055,40.7663646 L63.2851055,40.7661585 Z M46.2714844,19.2576268 C47.1575781,16.395444 49.8388398,14.309677 53,14.309677 C56.1611602,14.309677 58.8424219,16.395444 59.7283086,19.2576268 L46.2714844,19.2576268 Z M47.0615156,23.3809183 L58.9384844,23.3809183 C62.6101836,23.3809183 65.5972305,26.3554608 65.5972305,30.0117896 C65.5972305,33.6681183 62.6101836,36.642867 58.9384844,36.642867 L47.0615156,36.642867 C43.3898164,36.642867 40.4027695,33.6681183 40.4027695,30.0117896 C40.4027695,26.355667 43.3898164,23.3809183 47.0615156,23.3809183 Z M4.140625,27.4691619 C4.140625,22.4107078 8.27317578,18.2954567 13.3528945,18.2954567 C15.8275391,18.2954567 18.2158516,19.1895925 20.0774766,20.8131385 L38.2281133,36.6426608 L13.3528945,36.6426608 C8.27317578,36.642867 4.140625,32.5276159 4.140625,27.4691619 Z M26.182,50.0998473 C25.1634063,51.1568531 23.7353047,51.7629769 22.2643477,51.7629769 C19.2700547,51.7629769 16.834125,49.3372445 16.834125,46.3554863 C16.834125,43.273532 19.3520391,40.7661585 22.4469492,40.7661585 L35.1781289,40.7661585 L26.182,50.0998473 Z M53,75.7564102 L46.023875,67.5887882 L59.976125,67.5887882 L53,75.7564102 Z M65.2852344,61.3727201 L63.4979336,63.4652905 L42.5020664,63.4652905 L40.7147656,61.3727201 C38.9077969,59.2570592 37.7281328,56.7742192 37.1960625,54.1773703 L68.8037305,54.1773703 C68.2718672,56.7742192 67.0922031,59.2570592 65.2852344,61.3727201 Z M89.166082,46.3554863 C89.166082,49.3372445 86.7299453,51.7629769 83.7358594,51.7629769 C82.2649023,51.7629769 80.8368008,51.1568531 79.818207,50.1000535 L70.8220781,40.7661585 L83.5532578,40.7661585 C86.648168,40.7661585 89.166082,43.273532 89.166082,46.3554863 Z" id="XMLID_503_"></path>
                <path d="M93,17 C93.528,17 94.042,16.786 94.414,16.414 C94.788,16.042 95,15.526 95,15 C95,14.474 94.788,13.958 94.414,13.586 C94.042,13.214 93.528,13 93,13 C92.474,13 91.958,13.214 91.586,13.586 C91.214,13.958 91,14.474 91,15 C91,15.526 91.214,16.042 91.586,16.414 C91.958,16.786 92.474,17 93,17 Z" id="XMLID_1014_"></path>
            </g>
        </g>
    </g>
</svg>