<?xml version="1.0" encoding="UTF-8"?>
<svg width="242px" height="265px" viewBox="0 0 242 265" version="1.1" xmlns="http://www.w3.org/2000/svg" xmlns:xlink="http://www.w3.org/1999/xlink">
    <!-- Generator: Sketch 58 (84663) - https://sketch.com -->
    <title>icon5</title>
    <desc>Created with Sketch.</desc>
    <g id="Page-1" stroke="none" stroke-width="1" fill="none" fill-rule="evenodd">
        <g id="icon5" transform="translate(-4.000000, 9.000000)">
            <path d="M136.891514,6.78318171 L221.144689,54.8430521 C228.631388,59.1136302 233.253175,67.0708429 233.253175,75.6899201 L233.253175,171.31008 C233.253175,179.929157 228.631388,187.88637 221.144689,192.156948 L136.891514,240.216818 C129.521224,244.420994 120.478776,244.420994 113.108486,240.216818 L28.855311,192.156948 C21.3686125,187.88637 16.7468245,179.929157 16.7468245,171.31008 L16.7468245,75.6899201 C16.7468245,67.0708429 21.3686125,59.1136302 28.855311,54.8430521 L113.108486,6.78318171 C120.478776,2.57900573 129.521224,2.57900573 136.891514,6.78318171 Z" id="ффффф" stroke="#F9F4F0" stroke-width="24" fill="#FFFFFF" stroke-linejoin="round"></path>
            <g id="007-apiarist-2" transform="translate(65.000000, 64.000000)" fill-rule="nonzero">
                <path d="M47.7496875,35.1445161 C48.2301875,34.0567742 48.3929375,33.3116129 48.39875,33.2845161 L48.4375,17.4193548 C48.4375,16.7651613 48.394875,16.1206452 48.3231875,15.483871 L52.3125,15.483871 L52.3125,11.6129032 L47.4203125,11.6129032 C45.01975,4.85806452 38.575625,0 31,0 C23.424375,0 16.98025,4.85806452 14.5796875,11.6129032 L9.6875,11.6129032 L9.6875,15.483871 L13.6768125,15.483871 C13.605125,16.1206452 13.5625,16.7651613 13.5625,17.4193548 L13.5625,32.9032258 L13.5993125,33.2825806 C13.605125,33.3116129 13.767875,34.0548387 14.2503125,35.1425806 C6.1535,36.6464516 0,43.7419355 0,52.2580645 L0,71.6129032 C0,78.0174194 5.2138125,83.2258065 11.625,83.2258065 L11.625,120 L50.375,120 L50.375,83.2258065 C56.7861875,83.2258065 62,78.0174194 62,71.6129032 L62,52.2580645 C62,43.7419355 55.8465,36.6464516 47.7496875,35.1445161 Z M31,3.87096774 C36.3959375,3.87096774 41.05175,7.04322581 43.2353125,11.6129032 L18.7646875,11.6129032 C20.94825,7.04322581 25.6040625,3.87096774 31,3.87096774 Z M17.4375,17.4193548 C17.4375,16.7612903 17.5014375,16.1187097 17.5925,15.483871 L44.4075,15.483871 C44.4985625,16.1187097 44.5625,16.7612903 44.5625,17.4193548 L44.5625,27.0967742 L17.4375,27.0967742 L17.4375,17.4193548 Z M17.4375,30.9677419 L44.5625,30.9677419 L44.5625,32.6729032 C44.240875,33.8516129 41.9178125,40.6451613 31,40.6451613 C20.053125,40.6451613 17.7455625,33.8187097 17.4375,32.6748387 L17.4375,30.9677419 Z M11.625,79.3548387 C7.350875,79.3548387 3.875,75.8825806 3.875,71.6129032 L11.625,71.6129032 L11.625,79.3548387 Z M29.0625,116.129032 L15.5,116.129032 L15.5,112.258065 L29.0625,112.258065 L29.0625,116.129032 Z M46.5,116.129032 L32.9375,116.129032 L32.9375,112.258065 L46.5,112.258065 L46.5,116.129032 Z M50.375,79.3548387 L50.375,71.6129032 L58.125,71.6129032 C58.125,75.8825806 54.649125,79.3548387 50.375,79.3548387 Z M58.125,67.7419355 L50.375,67.7419355 L50.375,48.3870968 L46.5,48.3870968 L46.5,108.387097 L32.9375,108.387097 L32.9375,87.0967742 L29.0625,87.0967742 L29.0625,108.387097 L15.5,108.387097 L15.5,48.3870968 L11.625,48.3870968 L11.625,67.7419355 L3.875,67.7419355 L3.875,52.2580645 C3.875,45.0909677 9.482125,39.2206452 16.5404375,38.7541935 C18.7685625,41.3554839 22.6086875,43.9741935 29.0625,44.4251613 L29.0625,71.6129032 L32.9375,71.6129032 L32.9375,44.4251613 C39.389375,43.976129 43.2314375,41.3574194 45.457625,38.7541935 C52.517875,39.2206452 58.125,45.0909677 58.125,52.2580645 L58.125,67.7419355 Z" id="Shape" fill="#EB6D2F"></path>
                <path d="M93,31 L66,37.2458176 L66,50.3871725 L69.8571429,50.3871725 L69.8571429,92.9283448 L73.7142857,92.9283448 L73.7142857,120 L77.5714286,120 L77.5714286,92.9283448 L108.428571,92.9283448 L108.428571,120 L112.285714,120 L112.285714,92.9283448 L116.142857,92.9283448 L116.142857,50.3871725 L120,50.3871725 L120,37.2458176 L93,31 Z M116.142857,46.5197932 L108.428571,46.5197932 L108.428571,50.3871725 L112.285714,50.3871725 L112.285714,89.0609655 L73.7142857,89.0609655 L73.7142857,50.3871725 L104.571429,50.3871725 L104.571429,46.5197932 L69.8571429,46.5197932 L69.8571429,40.3242515 L93,34.9679312 L116.142857,40.3242515 L116.142857,46.5197932 Z" id="Shape" fill="#EB6D2F"></path>
                <path d="M77,69 L108,69 L108,54 L77,54 L77,69 Z M80.875,57.75 L104.125,57.75 L104.125,65.25 L80.875,65.25 L80.875,57.75 Z" id="Shape" fill="#F6BB05"></path>
                <rect id="Rectangle" fill="#F6BB05" x="105" y="74" width="4" height="4"></rect>
                <rect id="Rectangle" fill="#F6BB05" x="85" y="74" width="15" height="4"></rect>
                <rect id="Rectangle" fill="#F6BB05" x="77" y="74" width="4" height="4"></rect>
            </g>
        </g>
    </g>
</svg>