<?xml version="1.0" encoding="UTF-8"?>
<svg width="242px" height="265px" viewBox="0 0 242 265" version="1.1" xmlns="http://www.w3.org/2000/svg" xmlns:xlink="http://www.w3.org/1999/xlink">
    <!-- Generator: Sketch 58 (84663) - https://sketch.com -->
    <title>icon1 copy</title>
    <desc>Created with Sketch.</desc>
    <g id="Page-1" stroke="none" stroke-width="1" fill="none" fill-rule="evenodd">
        <g id="icon1-copy" transform="translate(-4.000000, 9.000000)">
            <path d="M136.891514,6.78318171 L221.144689,54.8430521 C228.631388,59.1136302 233.253175,67.0708429 233.253175,75.6899201 L233.253175,171.31008 C233.253175,179.929157 228.631388,187.88637 221.144689,192.156948 L136.891514,240.216818 C129.521224,244.420994 120.478776,244.420994 113.108486,240.216818 L28.855311,192.156948 C21.3686125,187.88637 16.7468245,179.929157 16.7468245,171.31008 L16.7468245,75.6899201 C16.7468245,67.0708429 21.3686125,59.1136302 28.855311,54.8430521 L113.108486,6.78318171 C120.478776,2.57900573 129.521224,2.57900573 136.891514,6.78318171 Z" id="ффффф" stroke="#FFFFFF" stroke-width="24" fill="#F9F4F0" stroke-linejoin="round"></path>
            <g id="bee" transform="translate(65.000000, 63.000000)" fill-rule="nonzero">
                <path d="M107,54 C107,49.5878905 103.412109,46 99,46 C94.5878905,46 91,49.5878905 91,54 C91,58.4121095 94.5878905,62 99,62 C103.412109,62 107,58.4121095 107,54 Z M95,54 C95,51.7939453 96.7939452,50 99,50 C101.206055,50 103,51.7939453 103,54 C103,56.2060548 101.206055,58 99,58 C96.7939452,58 95,56.2060548 95,54 Z" id="Shape" fill="#EB6D2F"></path>
                <path d="M99.9090277,97.0154543 L99.9090277,75.3289106 C100.535427,75.4629586 101.171148,75.5337588 101.818055,75.5337588 C106.468514,75.5337588 110.363005,72.1315778 111.195408,67.6560673 C111.370651,67.6173633 111.544962,67.5748831 111.716476,67.5239071 C115.196164,66.5308177 117.877005,63.8281417 118.709408,60.4750487 C119.23234,58.3661498 119.046844,56.2430905 118.174359,54.2691835 C118.722458,53.0306537 118.999305,51.7345399 118.999305,50.400666 C118.999305,45.6910431 115.639863,41.7451173 111.219644,40.904956 C111.181426,40.7265398 111.13948,40.5490675 111.090076,40.3763152 C110.106666,36.854246 107.439806,34.1402422 104.129769,33.2972488 C102.047363,32.7629441 99.9491099,32.9526883 98.0018642,33.8362736 C96.7798256,33.2812008 95.4990618,33 94.1819446,33 C89.5314861,33 85.6369949,36.4039574 84.8045918,40.8794679 C84.629349,40.9181721 84.4550383,40.9606521 84.2835241,41.0106841 C80.8038365,42.0047175 78.1229949,44.7073936 77.2905918,48.0595425 C76.7676599,50.1693857 76.9531561,52.2915008 77.8256414,54.2654078 C77.2775416,55.5048815 77.0006954,56.8000514 77.0006954,58.1339253 C77.0006954,62.8435481 80.3601367,66.7894739 84.780356,67.6305792 C84.818574,67.8089954 84.8605203,67.9864677 84.9099238,68.1582761 C85.8933342,71.6812892 88.5601936,74.395293 91.8702314,75.2382864 C92.6448418,75.4374705 93.4203843,75.5337588 94.1894018,75.5337588 C94.8288516,75.5337588 95.4627084,75.4629586 96.0891081,75.3270224 L96.0891081,81.5451596 C93.6627413,79.033172 90.2837249,77.4670736 86.5458339,77.4670736 L77.0006954,77.4670736 L77.0006954,79.4003885 C77.0006954,86.8617754 82.9953034,92.9335923 90.3638892,92.9335923 L96.0909723,92.9335923 L96.0909723,100.882084 C93.6627413,98.3663203 90.2837249,96.800222 86.5458339,96.800222 L77.0006954,96.800222 L77.0006954,98.7335368 C77.0006954,106.194924 82.9953034,112.266741 90.3638892,112.266741 L96.0909723,112.266741 L96.0909723,116.13337 L84.6368062,116.13337 L84.6368062,120 L111.363194,120 L111.363194,116.13337 L99.9090277,116.13337 L99.9090277,108.400111 L105.636111,108.400111 C113.004697,108.400111 118.999305,102.328294 118.999305,94.8669072 L118.999305,92.9335923 L109.454166,92.9335923 C105.716275,92.9335923 102.337259,94.4996907 99.9090277,97.0154543 Z M92.8033059,71.4896569 C90.8122497,70.9808401 89.1959148,69.3033497 88.5844294,67.1085465 C88.47164,66.7064018 88.4166438,66.2891533 88.4185079,65.8671846 L88.4241009,63.9376458 L86.5169374,63.9282057 C83.3746854,63.9149898 80.8187508,61.316154 80.8187508,58.1339253 C80.8187508,57.1370598 81.0881399,56.1619065 81.6185289,55.2396172 L82.1759502,54.2672956 L81.6185289,53.2949741 C80.8355292,51.9299482 80.6239331,50.4875141 80.9921292,49.0054318 C81.4926898,46.9890448 83.1519033,45.3512026 85.3237951,44.7309935 C85.7115663,44.6186575 86.1161163,44.5620175 86.5290554,44.5620175 L86.5421053,44.5620175 L88.4492686,44.5686255 L88.4585901,42.6390865 C88.4735044,39.456858 91.0415568,36.8674621 94.1819446,36.8674621 C95.1672191,36.8674621 96.1291901,37.1402785 97.0398932,37.6774152 L98,38.2447602 L98.9601068,37.6774152 C100.30612,36.8853982 101.730434,36.6701659 103.196694,37.0458783 C105.18775,37.5537512 106.804085,39.2321855 107.415571,41.4269889 C107.52836,41.8291334 107.583356,42.2463819 107.581492,42.6674066 L107.575899,44.5969455 L109.483063,44.6063856 C112.625315,44.6205454 115.181249,47.2184372 115.181249,50.400666 C115.181249,51.3984754 114.91186,52.3726848 114.381471,53.2949741 L113.82405,54.2672956 L114.381471,55.2396172 C115.164471,56.6046431 115.376067,58.0470772 115.007871,59.5301034 C114.50731,61.5464904 112.848097,63.1843328 110.676205,63.8045417 C110.284705,63.9187658 109.920237,64.0056139 109.45603,63.9725738 L107.548867,63.9669099 L107.539545,65.8964487 C107.526496,69.0786772 104.958443,71.6671426 101.818055,71.6671426 C100.832781,71.6671426 99.8708099,71.3952567 98.9601068,70.8571761 L98,70.2907752 L97.0398932,70.8571761 C95.6920153,71.6501372 94.2658373,71.8606494 92.8033059,71.4896569 Z M90.3638892,89.0669627 C85.7535129,89.0669627 81.8972395,85.7403018 81.0117043,81.3337033 L86.5458339,81.3337033 C91.1562102,81.3337033 95.0124836,84.6613081 95.8980188,89.0669627 L90.3638892,89.0669627 Z M90.3638892,108.400111 C85.7535129,108.400111 81.8972395,105.07345 81.0117043,100.666852 L86.5458339,100.666852 C91.1562102,100.666852 95.0124836,103.994456 95.8980188,108.400111 L90.3638892,108.400111 Z M105.636111,104.533481 L100.101981,104.533481 C100.987516,100.127827 104.845654,96.800222 109.454166,96.800222 L114.988296,96.800222 C114.10276,101.20682 110.246487,104.533481 105.636111,104.533481 Z" id="Shape" fill="#F6BB05"></path>
                <path d="M78.82185,32.8116749 C78.1802263,28.3155815 75.8526946,23.8581499 72.2663768,20.2644812 C69.109062,17.0989222 65.2837818,14.9149977 61.3531322,13.9993715 L59.9353512,8.31796131 L63.0183427,5.22784014 L60.2937948,2.49699147 L55.6697777,7.13264481 L57.267251,13.5382577 C55.5540596,13.5439156 53.9377706,13.8183207 52.457897,14.352986 L48.5216026,7.77763807 L51.6986739,2.99959581 L48.4924379,0.858105194 L43.9625005,7.66731033 L49.0682056,16.1974404 C48.6834197,16.4982487 48.3136863,16.8207455 47.9646508,17.1724742 C45.0547657,20.0890884 43.8223218,24.2834306 44.4902875,28.984149 C44.5392092,29.3236191 44.6154137,29.6621464 44.6831511,29.9997307 L36.9046419,7.91436904 C35.2384905,3.17876072 30.7527706,0 25.7449084,0 C25.0807059,0 24.4560167,0.0509206415 23.8285051,0.154647508 C14.1712245,1.77938937 3.8535043,8.16897176 3.8535043,21.2432869 C3.8535043,24.4512796 4.72280068,27.2783116 6.1462264,29.779075 C2.07727966,33.5453077 0,38.4638528 0,44.4177817 C0,51.9653345 4.8996705,58.5425685 14.1909812,63.5525819 C13.746925,65.3753479 13.487265,67.3546474 13.487265,69.5234844 C13.487265,89.0081275 19.1809682,102.549214 19.4236939,103.114998 L20.2271344,105 L22.0551029,104.082487 C22.0899123,104.065514 25.5642754,102.354019 30.8280344,102.354019 C39.4391488,102.354019 62.8235977,92.1340815 63.5480115,59.4817692 C66.9010118,58.4633588 69.3630773,55.3741805 69.3630773,51.6871575 L69.3630773,50.2114054 C69.3630773,49.4504265 69.2323065,48.6998203 69.0243904,47.9737315 C71.468581,47.467355 73.6324138,46.3433317 75.3493684,44.6242928 C78.2592533,41.7086215 79.4916974,37.5142793 78.82185,32.8116749 L78.82185,32.8116749 Z M61.6560687,19.312079 C63.7813291,19.312079 65.509573,21.0443196 65.509573,23.1744948 C65.509573,25.30467 63.7813291,27.0369106 61.6560687,27.0369106 C59.5308084,27.0369106 57.8025644,25.30467 57.8025644,23.1744948 C57.8025644,21.0443196 59.5308084,19.312079 61.6560687,19.312079 Z M24.4635431,3.96519976 C24.8765528,3.89730573 25.2942668,3.8624158 25.7449084,3.8624158 C29.1204879,3.8624158 32.1460908,6.00673539 33.271284,9.20058367 L41.0027534,31.1624158 C40.346077,30.9926808 39.6677625,30.8993264 38.9894479,30.8993264 C38.6291227,30.8993264 38.2847911,30.9615625 37.9376368,31.0058823 L28.7526362,8.91297709 L25.196424,10.4000448 L34.3325029,32.3788504 C33.6871164,32.8305343 33.1282828,33.3906599 32.637187,34.0073641 L16.693501,19.8005389 L14.1326519,22.6860349 L30.969154,37.6859002 C30.8901268,38.141356 30.8280344,38.6034125 30.8280344,39.0805568 L30.8280344,40.5553659 C30.8280344,40.8533453 30.8590806,41.1428379 30.8873046,41.4323303 C23.231099,39.1456218 7.70700859,33.0511898 7.70700859,21.2432869 C7.70700859,7.82384367 20.5357158,4.62528058 24.4635431,3.96519976 Z M18.5873252,84.8920519 C18.2119474,82.5770543 17.8901948,80.0762909 17.6681667,77.4029635 C24.0825204,83.6935339 35.8217846,90.3575213 45.3595841,92.1963178 C44.1845286,93.1194881 43.0066508,93.9247865 41.8551153,94.6140996 C31.4141509,94.4519083 23.0975059,89.5965424 18.5873252,84.8920519 Z M24.3290091,54.2765604 C30.7584155,61.7156712 48.6232087,71.7602155 57.7291822,73.1991915 C57.3302843,74.5910193 56.8796427,75.9102378 56.3847834,77.1615626 C44.0706922,76.286484 27.0516753,64.442748 21.3269259,57.4091153 C22.2404398,56.2275707 23.2574413,55.1865289 24.3290091,54.2765604 Z M27.4637445,52.0190838 C31.2212874,49.7210597 34.9110931,48.7092501 36.3486309,48.3773238 L57.5523126,59.0027391 C58.2268639,59.3403232 58.949396,59.5704085 59.6888623,59.7109114 C59.5966643,63.2451729 59.2419837,66.4861697 58.6521041,69.4291872 C51.3458749,68.5277054 33.8028342,59.1998203 27.4637445,52.0190838 Z M3.8535043,44.4177817 C3.8535043,39.7792994 5.3926481,35.9423439 8.39096803,32.977638 C14.9248028,40.6308037 26.7572059,44.40458 31.876082,45.7370005 C26.9152598,47.5559946 19.0671318,51.6211495 15.443182,59.8372698 C9.65539913,56.5981588 3.8535043,51.5711718 3.8535043,44.4177817 Z M22.304414,99.8457116 C21.6816066,98.0880107 20.7107041,95.0544678 19.7915453,91.0543779 C23.7024382,93.9577906 28.8570647,96.5123034 34.8913364,97.7287382 C33.1000591,98.2681185 31.6625213,98.4916029 30.8280344,98.4916029 C27.1128273,98.4916029 24.1286194,99.2356083 22.304414,99.8457116 L22.304414,99.8457116 Z M49.0973704,88.7761561 C38.349706,88.160395 21.1886287,77.8027839 17.3595853,70.9605747 C17.3539406,70.4815446 17.3407693,70.0081722 17.3407693,69.5234844 C17.3407693,66.1419848 18.0538935,63.2838347 19.1997841,60.8622811 C25.8070011,68.2353837 41.58887,79.2804221 54.6791186,80.896677 C53.0477766,84.0160304 51.1323142,86.616749 49.0973704,88.7761561 Z M65.509573,51.6871575 C65.509573,54.0681633 63.577176,56.0050291 61.2016638,56.0050291 C60.5365203,56.0050291 59.8704363,55.8466097 59.2749116,55.5495733 L37.0626958,44.4177817 C35.5950526,43.6822631 34.6815387,42.2027391 34.6815387,40.5553659 L34.6815387,39.0805568 C34.6815387,36.6986081 36.6139357,34.7617422 38.9894479,34.7617422 C39.6545915,34.7617422 40.3206754,34.9201616 40.9162001,35.218141 L49.1011335,39.3200717 C49.7041843,40.0848225 50.3439262,40.829771 51.0457606,41.5351145 C54.6311379,45.1287829 59.0782851,47.4616973 63.564005,48.1048047 C64.0569826,48.1745846 64.5311442,48.1821284 65.0128323,48.2113606 C65.3327032,48.8271216 65.509573,49.5126628 65.509573,50.2114054 L65.509573,51.6871575 Z M72.6229387,41.892501 C70.5908173,43.927436 67.5614511,44.7713965 64.1087264,44.2810508 C60.4443223,43.7558148 56.771451,41.8114054 53.7703086,38.8023798 C50.7701072,35.7933544 48.8292433,32.114818 48.3052192,28.4409968 C47.8122416,24.9727436 48.6580181,21.9410866 50.6891988,19.9052087 C52.174717,18.4162549 54.2068384,17.6015266 56.5362519,17.4431072 C54.9604169,18.8603951 53.9490601,20.8925011 53.9490601,23.1744948 C53.9490601,27.4348452 57.405548,30.8993264 61.6560687,30.8993264 C65.9065895,30.8993264 69.3630773,27.4348452 69.3630773,23.1744948 C69.3630773,23.0434216 69.3301494,22.9217782 69.3245047,22.792591 C69.3960053,22.8623708 69.471269,22.9236642 69.5418289,22.9953299 C72.5420303,26.0043555 74.4828942,29.6828919 75.0069183,33.35577 C75.5017774,36.8249663 74.6560008,39.8585091 72.6229387,41.892501 L72.6229387,41.892501 Z" id="Shape" fill="#EB6D2F"></path>
                <polygon id="Path" fill="#EB6D2F" points="116 116 120 116 120 120 116 120"></polygon>
                <polygon id="Path" fill="#EB6D2F" points="77 116 81 116 81 120 77 120"></polygon>
            </g>
        </g>
    </g>
</svg>